<svg xmlns="http://www.w3.org/2000/svg" version="1.1" xmlns:xlink="http://www.w3.org/1999/xlink" xmlns:svgjs="http://svgjs.com/svgjs" width="1000" height="1000"><rect width="1000" height="1000" rx="200" ry="200" fill="#a6a6a6"></rect><g transform="matrix(1.5625,0,0,1.5625,100.35487985610962,101.84574604034424)"><svg xmlns="http://www.w3.org/2000/svg" version="1.1" xmlns:xlink="http://www.w3.org/1999/xlink" xmlns:svgjs="http://svgjs.com/svgjs" width="512" height="512"><svg xmlns="http://www.w3.org/2000/svg" width="512" height="512" viewBox="0 0 512 512" version="1.1">
	<path d="M 234.382 34.456 C 204.398 42.207, 181.409 60.779, 168.988 87.284 L 165.019 95.754 155.986 96.186 C 142.745 96.819, 143.500 95.112, 143.500 124.433 C 143.500 154.178, 143.003 153, 155.548 153 C 162.138 153, 163.907 153.317, 164.393 154.582 C 164.727 155.452, 165 161.887, 165 168.882 C 165 177.440, 165.392 181.992, 166.200 182.800 C 167.012 183.612, 171.672 184, 180.624 184 L 193.848 184 194.174 192.088 C 194.353 196.536, 194.313 200.361, 194.083 200.588 C 193.854 200.815, 187.532 201, 180.033 201 C 170.763 201, 166.016 201.384, 165.200 202.200 C 164.392 203.008, 164 207.578, 164 216.200 C 164 227.873, 163.339 230.975, 161.488 227.981 C 161.142 227.421, 158.528 225.733, 155.679 224.231 C 150.990 221.759, 149.506 221.500, 140 221.500 C 130.446 221.500, 129.024 221.751, 124.216 224.284 C 114.252 229.534, 107.384 238.437, 104.444 249.912 C 101.879 259.924, 104.462 270.976, 111.324 279.350 L 114.797 283.589 115.149 301.792 C 115.423 316.019, 115.788 319.995, 116.820 319.997 C 118.869 320.002, 117.779 324.426, 115.628 324.837 C 114.598 325.033, 112 324.402, 109.853 323.434 L 105.950 321.674 103.048 324.454 C 99.606 327.752, 96.206 335.220, 95.370 341.319 C 94.137 350.313, 99.659 361.843, 108.141 367.987 C 116.501 374.043, 122.684 373.831, 125.755 367.383 C 127.435 363.856, 127.430 363.679, 125.616 362.610 C 119.862 359.220, 118 356.830, 118 352.834 C 118 344.327, 127.438 340.076, 136.233 344.621 C 141.998 347.601, 143.778 355.981, 139.500 360 C 136.480 362.837, 136.293 366.293, 139.011 369.011 L 141.022 371.022 145.885 368.559 C 158.873 361.977, 164.665 347.134, 160.105 332.118 C 157.734 324.314, 155.214 321.678, 151.066 322.665 C 149.655 323.001, 147.943 323.714, 147.263 324.250 C 145.283 325.808, 143 324.290, 143 321.415 C 143 319.142, 143.348 318.833, 145.457 319.236 C 147.561 319.639, 147.776 319.450, 146.957 317.919 C 146.430 316.936, 146 310.752, 146 304.177 L 146 292.223 149.250 291.602 C 151.037 291.261, 154.790 289.915, 157.589 288.611 L 162.678 286.241 163.358 335.774 C 163.855 371.944, 164.373 386.008, 165.280 387.904 C 166.474 390.399, 166.895 390.511, 176.146 390.785 L 185.770 391.070 186.372 400.785 C 186.703 406.128, 187.252 412.412, 187.592 414.750 C 188.202 418.947, 188.173 419, 185.194 419 C 181.442 419, 178.235 422.598, 173.365 432.268 C 168.883 441.169, 166 452.466, 166 461.132 L 166 467.944 171.250 469.434 C 182.769 472.702, 190.761 473.500, 212 473.500 C 229.609 473.500, 235.010 473.153, 241.843 471.585 C 253.709 468.862, 253.908 468.600, 252.933 457 C 252.035 446.335, 249.653 438.582, 244.514 429.600 C 239.471 420.786, 238.475 419.763, 234.278 419.078 L 230.500 418.462 230.707 404.627 L 230.915 390.792 254.174 390.946 C 266.966 391.030, 277.673 391.338, 277.966 391.629 C 278.260 391.920, 278.819 396.510, 279.210 401.829 C 279.600 407.148, 280.050 413.075, 280.210 415 C 280.491 418.393, 280.383 418.510, 276.687 418.814 C 273.243 419.098, 272.495 419.713, 268.970 425.168 C 262.368 435.383, 258 450.251, 258 462.510 C 258 467.650, 258.119 467.883, 261.250 468.879 C 271.577 472.165, 283.029 473.405, 303.500 473.452 C 324.557 473.500, 336.228 472.131, 343.669 468.741 C 346.242 467.569, 346.262 467.473, 345.706 459.029 C 344.469 440.230, 333.491 418, 325.444 418 L 323 418 323 403.965 L 323 389.929 333.199 390.215 C 343.197 390.494, 343.424 390.451, 344.685 388 C 345.681 386.064, 345.974 374.404, 345.985 336.296 L 346 287.092 351.250 289.536 C 354.137 290.881, 357.962 291.985, 359.750 291.990 L 363 292 363.006 297.750 C 363.009 300.913, 363.301 307.212, 363.654 311.750 C 364.209 318.882, 364.547 320, 366.148 320 C 368.282 320, 368.389 320.404, 366.965 323.066 C 365.686 325.455, 364.039 325.503, 360.136 323.263 C 357.216 321.588, 357.013 321.600, 354.305 323.617 C 350.325 326.581, 348.117 333.085, 348.064 342 C 347.994 353.762, 353.370 363.087, 363.076 368.039 C 368.165 370.635, 370.434 370.512, 372.385 367.535 C 374.544 364.241, 374.437 363.308, 371.500 359.818 C 368.399 356.133, 368.342 353.273, 371.280 348.912 C 376.703 340.865, 387.446 341.099, 391.361 349.349 C 393.751 354.386, 392.621 358.323, 387.887 361.456 C 385.749 362.871, 384 364.732, 384 365.591 C 384 367.983, 389.554 373.003, 392.173 372.978 C 398.951 372.914, 409.550 364.469, 413.294 356.149 C 417.581 346.621, 415.582 333.546, 408.569 325.250 C 405.534 321.659, 403.340 321.256, 399.014 323.493 C 395.409 325.357, 393 324.516, 393 321.393 C 393 318.826, 394.846 318.246, 396.800 320.200 C 397.733 321.133, 398 321.035, 398 319.759 C 398 318.856, 397.550 317.840, 397 317.500 C 396.395 317.126, 396 309.967, 396 299.374 C 396 282.299, 396.061 281.787, 398.469 278.629 C 409.135 264.646, 407.390 244.338, 394.408 231.356 C 389.213 226.160, 379.925 221.452, 372.989 220.498 C 367.038 219.680, 358.131 221.410, 351.783 224.617 C 349.189 225.928, 346.602 227, 346.033 227 C 345.382 227, 345 222.747, 345 215.500 C 345 200.094, 344.648 199.703, 331.622 200.619 C 326.485 200.980, 320.643 200.968, 318.641 200.592 L 315 199.909 315 191.955 L 315 184 328.878 184 C 340.548 184, 342.973 183.738, 344.128 182.351 C 345.079 181.208, 345.653 176.535, 346 167.101 L 346.500 153.500 355.252 153.211 C 367.400 152.810, 367.357 152.888, 367.850 130.292 C 368.267 111.149, 367.544 101.126, 365.549 98.398 C 364.491 96.952, 362.415 96.523, 354.864 96.193 L 345.491 95.783 342.631 88.804 C 333.798 67.251, 311.505 46.460, 288.118 37.962 C 270.035 31.392, 251.028 30.152, 234.382 34.456 M 240 45.552 C 214.865 50.150, 192.827 66.807, 182.085 89.326 C 174.828 104.539, 173.582 109.273, 173.619 121.500 C 173.647 130.906, 174.045 133.587, 176.367 140 C 177.860 144.125, 179.990 152.900, 181.100 159.500 C 182.209 166.100, 183.700 172.387, 184.412 173.472 C 185.682 175.407, 187.004 175.439, 255.073 175.202 C 293.225 175.069, 324.822 174.578, 325.290 174.110 C 325.757 173.643, 327.242 167.689, 328.588 160.880 C 329.935 154.071, 332.378 144.603, 334.018 139.840 C 339.512 123.884, 337.760 108.372, 328.311 89.293 C 312.007 56.378, 276.623 38.852, 240 45.552 M 236.230 70.015 C 232.231 71.063, 225.481 73.739, 221.230 75.963 C 212.162 80.705, 193.404 96.099, 189.139 102.298 C 175.086 122.723, 187.571 151.689, 210.658 152.226 C 217.048 152.374, 221.735 150.490, 230.063 144.427 C 241.652 135.989, 244.254 118.935, 235.938 105.923 C 232.442 100.451, 223.171 93.310, 218.402 92.416 C 216.519 92.062, 214.753 91.410, 214.479 90.965 C 213.704 89.713, 224.669 83.522, 233 80.509 C 242.084 77.222, 257.836 76.070, 268.435 77.915 C 276.823 79.376, 286.639 83.231, 292.170 87.238 L 296.354 90.269 290.265 93.033 C 282.316 96.641, 275.706 102.840, 272.325 109.857 C 268.684 117.415, 268.446 128.233, 271.770 135.055 C 276.435 144.628, 285.789 150.892, 296.731 151.771 C 302.327 152.220, 303.704 151.928, 309.544 149.053 C 316.700 145.530, 322.795 138.979, 325.163 132.264 C 325.893 130.194, 326.490 124.675, 326.490 120 C 326.489 112.650, 326.097 110.700, 323.592 105.588 C 318.402 94.999, 303.392 81.822, 288.678 74.936 C 273.658 67.908, 252.019 65.878, 236.230 70.015 M 207.500 109.417 C 199.121 113.157, 195.759 122.239, 199.975 129.742 C 202.809 134.784, 206.619 137, 212.454 137 C 221.564 137, 226.993 131.586, 226.993 122.500 C 226.993 111.487, 217.355 105.019, 207.500 109.417 M 291.500 109.359 C 286.022 111.889, 283.669 115.434, 283.204 121.853 C 282.556 130.812, 285.722 135.347, 294 137.313 C 298.433 138.367, 304.276 136.350, 307.750 132.568 C 310.559 129.510, 310.999 128.315, 310.996 123.765 C 310.990 115.130, 306.148 109.275, 298.288 108.397 C 296.205 108.164, 293.150 108.597, 291.500 109.359 M 209.223 119.557 C 206.774 121.272, 206.211 125.811, 208.200 127.800 C 209.912 129.512, 215.573 129.284, 217.429 127.429 C 219.739 125.118, 219.349 122.420, 216.365 120.073 C 213.209 117.590, 212.140 117.513, 209.223 119.557 M 293.473 121.030 C 290.631 124.170, 292.470 128.397, 296.862 128.820 C 302.735 129.386, 306.100 124.211, 302.171 120.655 C 299.681 118.402, 295.696 118.573, 293.473 121.030 M 286.617 155.449 C 284.481 156.761, 279.531 158.885, 275.617 160.167 C 269.499 162.172, 266.534 162.494, 254.500 162.460 C 239.385 162.416, 232.484 161.044, 224.124 156.420 C 221.717 155.089, 219.150 154, 218.419 154 C 216.957 154, 215.450 160.125, 216.341 162.447 C 217.175 164.621, 224.177 167.871, 232.741 170.062 C 242.530 172.565, 265.572 172.781, 274.540 170.453 C 281.507 168.644, 291.104 164.435, 292.203 162.705 C 293.664 160.408, 292.846 152.949, 291.143 153.031 C 290.789 153.048, 288.753 154.136, 286.617 155.449 M 177 208.863 L 171.500 209.500 171.244 289.805 C 171.071 344.023, 171.326 370.741, 172.029 372.055 C 173.048 373.957, 174.845 374, 254.285 373.985 C 298.953 373.976, 336.087 373.597, 336.805 373.141 C 337.863 372.471, 338.096 356.950, 338.030 291.431 C 337.975 237.695, 337.604 210.204, 336.924 209.524 C 335.783 208.383, 186.479 207.766, 177 208.863 M 322.017 215.286 C 316.121 218.269, 317.666 227, 324.089 227 C 329.190 227, 331 225.426, 331 220.990 C 331 217.640, 330.559 216.823, 328.050 215.526 C 324.545 213.713, 325.083 213.735, 322.017 215.286 M 178.975 217.046 C 175.704 223.159, 180.849 229.612, 186.750 226.798 C 190.178 225.163, 191.073 219.844, 188.415 216.906 C 186.025 214.265, 180.419 214.348, 178.975 217.046 M 199.299 229.503 C 198.119 230.330, 196.615 232.638, 195.957 234.631 C 192.688 244.535, 201.759 252.278, 211.020 247.490 C 214.745 245.563, 216 243.170, 216 237.989 C 216 232.061, 211.853 228, 205.799 228 C 203.405 228, 200.479 228.676, 199.299 229.503 M 299.388 228.980 C 295.853 230.409, 293 234.918, 293 239.079 C 293 244.551, 296.304 248.055, 302.079 248.705 C 305.927 249.139, 307.059 248.821, 309.762 246.547 C 319.200 238.605, 310.794 224.372, 299.388 228.980 M 129.500 238.665 C 124.867 241.113, 122.877 243.153, 120.881 247.500 C 116.477 257.090, 120.337 270.137, 128.921 274.677 C 136.628 278.752, 147.404 277.251, 154.356 271.133 C 160.850 265.420, 161.852 253.153, 156.387 246.265 C 150.142 238.394, 137.028 234.687, 129.500 238.665 M 246 237.629 C 225.496 241.568, 209.649 255.384, 203.755 274.458 C 200.990 283.406, 200.841 297.690, 203.421 306.500 C 209.033 325.670, 224.505 340.751, 241.886 343.995 C 249.779 345.468, 262.718 345.221, 269.540 343.468 C 287.130 338.948, 300.884 325.882, 306.224 308.620 C 309.330 298.581, 309.297 284.086, 306.148 274.810 C 300.604 258.480, 287.998 245.435, 272.419 239.909 C 266.596 237.843, 251.615 236.550, 246 237.629 M 358.234 239.571 C 351.237 243.057, 348.615 247.397, 348.657 255.421 C 348.710 265.457, 352.764 272.540, 360.500 276.110 C 374.001 282.341, 387.918 272.511, 387.978 256.700 C 388.003 250.123, 386.622 246.887, 381.835 242.311 C 375.467 236.223, 366.939 235.233, 358.234 239.571 M 243.286 257.392 C 233.296 260.653, 224.733 268.020, 220.637 276.878 C 218.883 280.671, 218.500 283.384, 218.500 292 C 218.500 301.157, 218.806 303.076, 220.894 307 C 224.792 314.325, 228.161 318.140, 234.166 322.025 C 252.441 333.849, 278.410 327.118, 287.730 308.142 C 290.168 303.176, 290.500 301.358, 290.500 292.979 C 290.500 284.258, 290.227 282.903, 287.250 276.856 C 280.989 264.138, 269.728 256.854, 255.500 256.318 C 250.609 256.134, 245.863 256.552, 243.286 257.392 M 384.500 293 C 383.400 293.473, 380.475 293.898, 378 293.945 C 372.989 294.040, 370.390 295.205, 371.431 296.888 C 371.842 297.553, 375.311 298, 380.059 298 L 388 298 388 295 C 388 291.822, 387.675 291.636, 384.500 293 M 122.586 293.748 C 122.264 294.070, 122 295.158, 122 296.167 C 122 297.781, 122.894 298, 129.500 298 C 135.568 298, 137 297.708, 137 296.469 C 137 295.626, 136.438 294.764, 135.750 294.552 C 133.289 293.792, 123.160 293.174, 122.586 293.748 M 122 307 C 122 308.968, 122.465 309.063, 130.750 308.789 C 137.733 308.558, 139.500 308.197, 139.500 307 C 139.500 305.803, 137.733 305.442, 130.750 305.211 C 122.465 304.937, 122 305.032, 122 307 M 370 307 C 370 308.852, 370.667 309, 379 309 C 387.333 309, 388 308.852, 388 307 C 388 305.148, 387.333 305, 379 305 C 370.667 305, 370 305.148, 370 307 M 192.707 326.016 C 189.626 328.440, 187.667 333.824, 188.565 337.402 C 189.595 341.506, 194.475 345, 199.177 345 C 202.419 345, 203.860 344.340, 206.600 341.600 C 210.545 337.655, 210.733 336.145, 207.985 330.470 C 204.868 324.030, 197.837 321.980, 192.707 326.016 M 303.917 326.782 C 301.526 328.919, 300.681 330.649, 300.277 334.235 C 299.802 338.448, 300.048 339.202, 302.798 341.952 C 305.211 344.364, 306.707 345, 309.973 345 C 319.543 345, 324.552 337.836, 320.483 329.967 C 317.275 323.764, 309.063 322.185, 303.917 326.782 M 192 401.864 C 192 404.257, 197.006 405, 213.140 405 L 225 405 225 402.500 L 225 400 208.500 400 C 193.068 400, 192 400.121, 192 401.864 M 285.323 401.601 C 284.246 404.406, 287.145 404.969, 302.750 404.985 C 317 404.999, 318 404.877, 318 403.125 C 318 400.569, 314.514 400, 298.844 400 C 287.932 400, 285.842 400.247, 285.323 401.601 M 193.177 416.224 C 193.496 418.469, 193.717 418.504, 209.323 418.776 L 225.146 419.052 224.823 416.776 C 224.504 414.531, 224.283 414.496, 208.677 414.224 L 192.854 413.948 193.177 416.224 M 286 416.500 L 286 419.052 301.250 418.776 C 315.741 418.514, 316.500 418.401, 316.500 416.500 C 316.500 414.599, 315.741 414.486, 301.250 414.224 L 286 413.948 286 416.500 M 177.604 436.590 C 177.268 437.465, 177.247 438.590, 177.556 439.090 C 178.305 440.302, 242 440.294, 242 439.082 C 242 434.972, 242.221 435, 209.500 435 C 181.824 435, 178.144 435.183, 177.604 436.590 M 270 437.500 L 270 440 302 440 C 319.600 440, 334 439.745, 334 439.434 C 334 439.123, 333.534 437.998, 332.965 436.934 C 331.976 435.086, 330.555 435, 300.965 435 L 270 435 270 437.500 M 173.250 447.662 C 172.563 447.940, 172 449.029, 172 450.083 C 172 451.938, 173.210 452, 209.500 452 C 245.458 452, 247 451.923, 247 450.131 C 247 448.748, 246.025 448.100, 243.250 447.642 C 238.818 446.909, 175.070 446.928, 173.250 447.662 M 265.212 448.188 C 261.537 451.863, 262.843 452, 301.570 452 L 339.139 452 338.820 449.750 L 338.500 447.500 302.462 447.238 C 275.268 447.040, 266.127 447.273, 265.212 448.188" stroke="none" fill="black" fill-rule="evenodd"></path>
</svg></svg></g></svg>